
        <svg xmlns="http://www.w3.org/2000/svg" xmlns:xlink="http://www.w3.org/1999/xlink" version="1.1" width="3196.72131147541" height="979.3963856224715" viewBox="0 0 3196.72131147541 979.3963856224715">
			
			<g transform="scale(9.836065573770492) translate(10, 10)">
				<defs id="SvgjsDefs6022"><linearGradient id="SvgjsLinearGradient6027"><stop id="SvgjsStop6028" stop-color="#ee2a7b" offset="0"/><stop id="SvgjsStop6029" stop-color="#ff7db8" offset="1"/></linearGradient><linearGradient id="SvgjsLinearGradient6030"><stop id="SvgjsStop6031" stop-color="#ee2a7b" offset="0"/><stop id="SvgjsStop6032" stop-color="#ff7db8" offset="1"/></linearGradient></defs><g id="SvgjsG6023" featureKey="tOsHRK-0" transform="matrix(0.8499915047540951,0,0,0.8499915047540951,0.000850335205542608,-2.493018065138509)" fill="#fff"><g xmlns="http://www.w3.org/2000/svg" display="none"><path display="inline" d="M100,21.7v56.197c0,4.509-3.669,8.181-8.181,8.181H8.182C3.67,86.077,0,82.405,0,77.896   V21.7c0-4.509,3.67-8.181,8.181-8.181h83.638C96.331,13.519,100,17.19,100,21.7z M21.567,77.884l5.307-12.586   c0.312-0.712,1.02-1.168,1.798-1.168h42.656c0.777,0,1.484,0.46,1.889,1.373l5.217,12.313l3.617,0.017   c0.071,0.009,0.39,0.021,0.461,0.021c0.04,0,0.161-0.004,0.271-0.009l3.636-0.017c0.139,0.021,0.695,0.029,0.831,0.013   c2.441-0.18,4.384-2.165,4.521-5.012l-0.003-46.433c-0.136-2.604-2.281-4.639-4.888-4.639H13.118c-2.604,0-4.748,2.035-4.886,5.024   l0.004,46.441c0.132,2.453,2.077,4.438,4.411,4.605c0.088,0.013,0.595,0.017,0.685,0.017l3.685-0.013   c0.155,0.018,0.312,0.021,0.844,0.009L21.567,77.884z"/><path display="inline" d="M30.012,34.411c-4.656,0-8.445,3.785-8.445,8.44c0,4.66,3.789,8.449,8.445,8.449   c4.658,0,8.449-3.789,8.449-8.449C38.461,38.196,34.67,34.411,30.012,34.411z"/><path display="inline" d="M69.988,34.411c-4.657,0-8.449,3.785-8.449,8.44c0,4.66,3.792,8.449,8.449,8.449   c4.656,0,8.445-3.789,8.445-8.449C78.434,38.196,74.645,34.411,69.988,34.411z"/></g><g xmlns="http://www.w3.org/2000/svg"><g><path d="M67.519,96.548c-9.544-9.724-14.724-22.301-14.581-35.414c0.141-13.136,5.557-25.875,14.857-34.951l2.34,2.397    c-8.67,8.458-13.717,20.336-13.849,32.589c-0.132,12.217,4.706,23.948,13.622,33.031L67.519,96.548z"/><path d="M80.01,84.505c-6.087-5.6-9.638-13.858-9.743-22.659c-0.107-8.98,3.347-17.316,9.725-23.472l2.326,2.41    c-5.707,5.509-8.798,12.974-8.701,21.021c0.094,7.882,3.251,15.258,8.661,20.235L80.01,84.505z"/></g><g><path d="M31.736,73.296l-2.338-2.396c8.668-8.46,13.716-20.337,13.848-32.588c0.131-12.218-4.707-23.949-13.623-33.033l2.39-2.346    c9.545,9.723,14.723,22.3,14.582,35.415C46.454,51.482,41.038,64.22,31.736,73.296z"/><path d="M19.541,61.105l-2.326-2.41c5.707-5.508,8.797-12.973,8.701-21.021c-0.094-7.881-3.251-15.257-8.662-20.235l2.268-2.465    c6.087,5.6,9.638,13.859,9.743,22.66C29.373,46.615,25.919,54.95,19.541,61.105z"/></g><path d="M6.279,44.381c-3.462,0-6.28-2.817-6.28-6.28c0-3.462,2.817-6.28,6.28-6.28c3.463,0,6.28,2.817,6.28,6.28   C12.56,41.564,9.742,44.381,6.279,44.381z M6.279,35.17c-1.616,0-2.931,1.315-2.931,2.931s1.315,2.931,2.931,2.931   s2.931-1.315,2.931-2.931S7.895,35.17,6.279,35.17z"/><path d="M93.72,67.706c-3.463,0-6.28-2.817-6.28-6.28s2.817-6.28,6.28-6.28s6.28,2.817,6.28,6.28S97.183,67.706,93.72,67.706z    M93.72,58.495c-1.616,0-2.931,1.314-2.931,2.931c0,1.615,1.314,2.931,2.931,2.931c1.615,0,2.931-1.315,2.931-2.931   C96.65,59.81,95.335,58.495,93.72,58.495z"/></g></g><g id="SvgjsG6024" featureKey="dVtZHI-0" transform="matrix(3.9344493577200232,0,0,3.9344493577200232,101.06489635531675,-10.281646382989102)" fill="#fff"><path d="M5.1304 19.32248 c0.18717 0 0.33894 0.15156 0.33894 0.33856 s-0.15176 0.33876 -0.33876 0.33876 l-2.6914 0 c-0.010332 0 -0.020488 -0.00033204 -0.030488 -0.0010156 c-0.0088086 0.0006836 -0.017617 0.0010156 -0.026426 0.0010156 c-0.76204 0 -1.3821 -0.61992 -1.3821 -1.3821 l0 -7.4639 c0 -0.18699 0.15176 -0.33876 0.33876 -0.33876 s0.33876 0.15176 0.33876 0.33876 l0 7.4641 c0 0.3618 0.27388 0.66076 0.62518 0.70024 c0.067578 -0.020488 0.14125 -0.019805 0.2102 0.004414 l2.6174 0 z M1.339 10.057 c-0.18717 0 -0.33876 -0.1516 -0.33876 -0.33878 l0 -2.2932 c0 -0.77508 0.60704 -1.3821 1.3821 -1.3821 l6.2034 0 c0.76204 0 1.3821 0.61992 1.3821 1.3821 c0 0.75934 -0.63296 1.4009 -1.3821 1.4009 l-1.7092 0 c-0.18699 0 -0.33876 -0.15176 -0.33876 -0.33876 s0.15176 -0.33876 0.33876 -0.33876 l1.7092 0 c0.37536 0 0.70462 -0.33808 0.70462 -0.72342 c0 -0.38196 -0.32268 -0.70462 -0.70462 -0.70462 l-6.2034 0 c-0.4016 0 -0.70462 0.30286 -0.70462 0.70462 l0 2.2932 c0 0.18699 -0.15176 0.33876 -0.33876 0.33876 z M8.5856 17.2166 c0.74934 0 1.3823 0.6416 1.3821 1.4009 c0 0.74916 -0.63296 1.3821 -1.3821 1.3821 l-1.9226 0 c-0.18699 0 -0.33876 -0.15176 -0.33876 -0.33876 s0.15176 -0.33876 0.33876 -0.33876 l1.9226 0 c0.37536 0 0.70462 -0.32928 0.70462 -0.70462 c0 -0.3855 -0.32928 -0.7236 -0.70462 -0.7236 l-5.141 0 c-0.18699 0 -0.33876 -0.15176 -0.33876 -0.33876 l0 -3.4906 c0 -0.18699 0.15176 -0.33876 0.33876 -0.33876 l4.4201 0 c0.38856 0 0.7046 -0.32454 0.7046 -0.72342 c0 -0.37536 -0.32928 -0.70462 -0.70462 -0.70462 l-4.4201 0 c-0.18699 0 -0.33876 -0.15176 -0.33876 -0.33876 l0 -3.4716 c0 -0.18699 0.15176 -0.33876 0.33876 -0.33876 l1.7053 0 c0.18699 0 0.33876 0.15176 0.33876 0.33876 s-0.15176 0.33876 -0.33876 0.33876 l-1.3666 0 l0 2.7943 l4.0814 0 c0.74916 0 1.3821 0.63296 1.3821 1.3821 c0 0.77236 -0.61992 1.4009 -1.3821 1.4009 l-4.0814 0 l0 2.8131 l4.8023 0 z M12.637500000000001 12.833400000000001 c0.0084766 1.6747 0.66984 3.2688 1.8621 4.4852 c0.13109 0.13363 0.12889 0.34824 -0.004746 0.47918 c-0.065898 0.064532 -0.1516 0.096718 -0.23712 0.096718 c-0.087734 0 -0.17547 -0.034044 -0.24188 -0.10162 c-1.3163 -1.343 -2.0464 -3.1044 -2.0558 -4.9594 c0.007461 -1.4733 0.47004 -2.888 1.3376 -4.095 c0.67176 -0.9348 1.5702 -1.7109 2.5976 -2.2444 c1.0349 -0.53744 2.198 -0.82454 3.3638 -0.8303 c1.6999 0 3.2872 0.53642 4.5918 1.5508 c0.59436 0.4951 0.7031 1.363 0.25662 1.9831 c-0.003379 0.0045704 -0.0069336 0.0091406 -0.010488 0.013535 c-0.4856 0.6074 -1.3977 0.72816 -1.9909 0.26388 c-0.7788 -0.63688 -1.7607 -0.97124 -2.8454 -0.97124 c-0.22918 0 -0.46022 0.017793 -0.68684 0.052676 c-0.18631 0.02795 -0.3579 -0.098418 -0.38634 -0.2832 c-0.028456 -0.18496 0.098418 -0.3579 0.2832 -0.38634 c0.26084 -0.040136 0.5266 -0.060468 0.79016 -0.060468 c1.2429 0 2.3732 0.3872 3.2688 1.1198 c0.29404 0.2302 0.7771 0.16092 1.0332 -0.15143 c0.23376 -0.33232 0.17447 -0.79304 -0.13668 -1.0525 c-1.1758 -0.91414 -2.6194 -1.4011 -4.1654 -1.4011 c-1.0571 0.005254 -2.1136 0.2661 -3.0534 0.75424 c-0.9338 0.48476 -1.7497 1.1895 -2.3598 2.0384 c-0.7849 1.0922 -1.2034 2.3716 -1.2102 3.6998 z M24.108 16.4656 c0.45004 0.62518 0.336 1.5139 -0.25394 1.9814 c-1.3069 1.0164 -2.8942 1.5529 -4.5924 1.5529 c-1.2155 0 -2.423 -0.30608 -3.4916 -0.88502 c-0.16463 -0.089102 -0.2256 -0.29472 -0.1365 -0.45936 c0.089102 -0.16447 0.29472 -0.22562 0.4592 -0.13652 c0.96986 0.5254 2.0656 0.80318 3.1688 0.80318 c1.5461 0 2.9896 -0.48698 4.1742 -1.4084 c0.30522 -0.24136 0.36314 -0.7075 0.12975 -1.0424 c-0.25848 -0.30032 -0.74528 -0.36806 -1.0483 -0.14398 c-0.91668 0.7336 -2.0156 1.1096 -3.2556 1.1096 c-1.3474 0 -2.6424 -0.51762 -3.6462 -1.4573 c-0.95022 -0.92888 -1.4921 -2.2202 -1.4921 -3.5482 c0 -1.3237 0.5122 -2.547 1.4814 -3.5378 c0.40498 -0.37942 0.85096 -0.68716 1.3359 -0.9248 c0.16785 -0.082148 0.37094 -0.012871 0.45326 0.15516 c0.082324 0.16785 0.012871 0.37094 -0.15516 0.45326 c-0.4248 0.20816 -0.81524 0.47766 -1.1606 0.80066 c-0.832 0.85114 -1.2775 1.9108 -1.2775 3.0536 c0 1.1467 0.46766 2.2616 1.2829 3.0588 c0.87264 0.81658 2.003 1.2692 3.178 1.2692 c1.0823 0 2.0386 -0.32606 2.8426 -0.96902 c0.60028 -0.44428 1.507 -0.323 1.9895 0.25626 c0.0050782 0.0060938 0.01 0.012363 0.01457 0.018809 z M35.843 16.8088 c0.18717 0 0.33878 0.15152 0.33878 0.33852 l0 1.4702 c0 0.77508 -0.61536 1.3821 -1.4009 1.3821 c-0.77508 0 -1.3821 -0.60704 -1.3821 -1.3821 l0 -4.2142 l-4.2359 0 l0 4.2142 c0 0.77508 -0.61536 1.3821 -1.4011 1.3821 c-0.77508 0 -1.3821 -0.60704 -1.3821 -1.3821 l0 -11.193 c0 -0.77508 0.60704 -1.3821 1.3821 -1.3821 c0.78558 0 1.4011 0.60704 1.4011 1.3821 l0 4.2142 l1.4052 0 c0.18699 0 0.33876 0.15176 0.33876 0.33876 s-0.15176 0.33876 -0.33876 0.33876 l-1.7439 0 c-0.18699 0 -0.33876 -0.15176 -0.33876 -0.33876 l0 -4.5529 c0 -0.39516 -0.31776 -0.7046 -0.7236 -0.7046 c-0.4016 0 -0.70462 0.30286 -0.70462 0.70462 l0 11.193 c0 0.40178 0.30286 0.70462 0.70462 0.70462 c0.40584 0 0.7236 -0.30946 0.7236 -0.7046 l0 -4.5529 c0 -0.18699 0.15176 -0.33876 0.33876 -0.33876 l4.9134 0 c0.18699 0 0.33876 0.15176 0.33876 0.33876 l0 4.5531 c0 0.40178 0.30286 0.70462 0.70462 0.70462 c0.40566 0 0.72342 -0.30946 0.72342 -0.7046 l0 -1.4702 c0 -0.18699 0.15176 -0.33876 0.33876 -0.33876 z M34.7812 6.042999999999999 c0.78558 0 1.4009 0.60704 1.4009 1.3821 l0 8.0381 c0 0.18699 -0.15176 0.33876 -0.33876 0.33876 s-0.33876 -0.15176 -0.33876 -0.33876 l0 -8.0381 c0 -0.39516 -0.31776 -0.7046 -0.72342 -0.7046 c-0.4016 0 -0.70462 0.30286 -0.70462 0.70462 l0 4.5529 c0 0.18699 -0.15176 0.33876 -0.33876 0.33876 l-1.9862 0 c-0.18699 0 -0.33876 -0.15176 -0.33876 -0.33876 s0.15176 -0.33876 0.33876 -0.33876 l1.6474 0 l0 -4.2142 c0 -0.77508 0.60704 -1.3821 1.3821 -1.3821 z M41.06920000000001 10.8688 c0.17666 0.06166 0.27018 0.25454 0.2087 0.4307 c-0.1709 0.49104 -0.25762 1.0063 -0.25762 1.5315 c0 1.1708 0.43496 2.2876 1.1934 3.0642 c0.77374 0.82876 1.7509 1.2637 2.831 1.2637 c1.0156 0 1.9921 -0.44682 2.7496 -1.2583 c0.7629 -0.79998 1.1989 -1.9177 1.1989 -3.0696 c0 -1.1452 -0.437 -2.2712 -1.199 -3.0888 c-0.74578 -0.7988 -1.7223 -1.239 -2.7494 -1.239 c-1.092 0 -2.069 0.42854 -2.8258 1.2392 c-0.052344 0.054882 -0.10078 0.1084 -0.1477 0.16344 c-0.12145 0.14211 -0.33554 0.15871 -0.47766 0.03709 s-0.15871 -0.33538 -0.03709 -0.47766 c0.055214 -0.064356 0.1118 -0.12703 0.17006 -0.18783 c0.88536 -0.94854 2.0338 -1.4516 3.3182 -1.4516 c1.217 0 2.3694 0.5166 3.2448 1.4546 c0.87774 0.94176 1.3811 2.236 1.3811 3.5508 c0 1.3242 -0.50442 2.6126 -1.3837 3.5346 c-0.88452 0.94768 -2.037 1.4709 -3.2424 1.4709 c-1.2546 0 -2.434 -0.52322 -3.3208 -1.4733 c-0.8757 -0.89652 -1.381 -2.1862 -1.381 -3.5322 c0 -0.60096 0.099434 -1.1914 0.29524 -1.7541 c0.061308 -0.17666 0.25388 -0.27066 0.43122 -0.2085 z M49.831 7.805999999999999 c1.2892 1.3723 2.0022 3.1592 2.0022 5.0256 c0 1.0581 -0.22052 2.0784 -0.65548 3.032 c-0.077402 0.17006 -0.27796 0.24526 -0.4487 0.1675 c-0.17023 -0.077578 -0.24528 -0.27846 -0.16752 -0.4487 c0.39432 -0.86468 0.59436 -1.7904 0.59436 -2.7508 c0 -1.6933 -0.64788 -3.3152 -1.8242 -4.5676 c-1.0788 -1.2067 -2.6792 -1.9231 -4.287 -1.9231 c-1.6674 0 -3.2708 0.70022 -4.399 1.9209 c-1.1538 1.2283 -1.7881 2.8506 -1.7881 4.5698 c0 1.7377 0.63366 3.3592 1.7844 4.5658 c1.1489 1.2239 2.753 1.9248 4.4026 1.9248 c1.591 0 3.1922 -0.71732 4.283 -1.9189 c0.04539 -0.047598 0.084356 -0.08961 0.12297 -0.13213 c0.12533 -0.13906 0.33976 -0.14957 0.47832 -0.024238 c0.13889 0.12533 0.14973 0.3396 0.024218 0.47832 c-0.04252 0.04709 -0.085878 0.093672 -0.12975 0.13957 c-1.2112 1.3344 -2.9998 2.1348 -4.7788 2.1348 c-1.8361 0 -3.6204 -0.7788 -4.8948 -2.1368 c-1.2697 -1.3312 -1.9699 -3.1188 -1.9699 -5.0314 c0 -1.8921 0.69954 -3.679 1.9699 -5.0314 c1.2543 -1.3571 3.039 -2.1368 4.8948 -2.1368 c1.7976 0 3.5868 0.801 4.7864 2.1428 z"/></g>
			</g>
		</svg>
	